HIERARCHY
ROOT Hips
{
	OFFSET 0.000000 0.000000 0.000000
	CHANNELS 6 Xposition Yposition Zposition Zrotation Yrotation Xrotation 
	JOINT Spine1
	{
		OFFSET -0.013727 5.003763 -0.053727
		CHANNELS 3 Zrotation Yrotation Xrotation
		JOINT Spine2
		{
			OFFSET -0.000000 7.125301 -0.029825
			CHANNELS 3 Zrotation Yrotation Xrotation
			JOINT Chest
			{
				OFFSET -0.000001 7.550064 -0.815971
				CHANNELS 3 Zrotation Yrotation Xrotation
				JOINT Neck1
				{
					OFFSET -0.181677 26.311296 -0.553348
					CHANNELS 3 Zrotation Yrotation Xrotation
					JOINT Neck2
					{
						OFFSET -0.000003 7.709399 2.302586
						CHANNELS 3 Zrotation Yrotation Xrotation
						JOINT Head
						{
							OFFSET -0.000005 6.128912 1.953709
							CHANNELS 3 Zrotation Yrotation Xrotation
							JOINT HeadEnd
							{
								OFFSET 0.003598 16.065401 -1.835379
								CHANNELS 3 Zrotation Yrotation Xrotation
								End Site
								{
									OFFSET 0.000000 0.000000 0.000000
								}
							}
							JOINT Jaw
							{
								OFFSET 0.002637 0.475591 3.094941
								CHANNELS 3 Zrotation Yrotation Xrotation
								End Site
								{
									OFFSET 0.000000 0.000000 0.000000
								}
							}
							JOINT LeftEye
							{
								OFFSET 3.206381 5.380208 7.586883
								CHANNELS 3 Zrotation Yrotation Xrotation
								End Site
								{
									OFFSET 0.000000 0.000000 0.000000
								}
							}
							JOINT RightEye
							{
								OFFSET -3.222440 5.361868 7.558233
								CHANNELS 3 Zrotation Yrotation Xrotation
								End Site
								{
									OFFSET 0.000000 0.000000 0.000000
								}
							}
						}
					}
				}
				JOINT LeftShoulder
				{
					OFFSET 1.621652 23.237164 5.113413
					CHANNELS 3 Zrotation Yrotation Xrotation
					JOINT LeftArm
					{
						OFFSET 14.919845 0.000000 -5.502326
						CHANNELS 3 Zrotation Yrotation Xrotation
						JOINT LeftForeArm
						{
							OFFSET 28.739309 0.000003 -0.002588
							CHANNELS 3 Zrotation Yrotation Xrotation
							JOINT LeftHand
							{
								OFFSET 27.093979 -0.000003 0.002608
								CHANNELS 3 Zrotation Yrotation Xrotation
								JOINT LeftHandThumb1
								{
									OFFSET 2.276480 -1.392046 3.191413
									CHANNELS 3 Zrotation Yrotation Xrotation
									JOINT LeftHandThumb2
									{
										OFFSET 4.012841 -1.828126 1.641655
										CHANNELS 3 Zrotation Yrotation Xrotation
										JOINT LeftHandThumb3
										{
											OFFSET 2.798517 0.000001 -0.000003
											CHANNELS 3 Zrotation Yrotation Xrotation
											JOINT LeftHandThumbEnd
											{
												OFFSET 3.180789 -0.000003 0.000003
												CHANNELS 3 Zrotation Yrotation Xrotation
												End Site
												{
													OFFSET 0.000000 0.000000 0.000000
												}
											}
										}
									}
								}
								JOINT LeftHandIndex1
								{
									OFFSET 3.247552 -0.531998 2.296169
									CHANNELS 3 Zrotation Yrotation Xrotation
									JOINT LeftHandIndex2
									{
										OFFSET 6.364580 0.012062 0.178600
										CHANNELS 3 Zrotation Yrotation Xrotation
										JOINT LeftHandIndex3
										{
											OFFSET 3.662366 0.000001 -0.000000
											CHANNELS 3 Zrotation Yrotation Xrotation
											JOINT LeftHandIndex4
											{
												OFFSET 2.329242 0.000001 0.000004
												CHANNELS 3 Zrotation Yrotation Xrotation
												JOINT LeftHandIndexEnd
												{
													OFFSET 2.759619 -0.180539 -0.113024
													CHANNELS 3 Zrotation Yrotation Xrotation
													End Site
													{
														OFFSET 0.000000 0.000000 0.000000
													}
												}
											}
										}
									}
								}
								JOINT LeftHandMiddle1
								{
									OFFSET 3.163499 0.240981 1.000332
									CHANNELS 3 Zrotation Yrotation Xrotation
									JOINT LeftHandMiddle2
									{
										OFFSET 6.190778 -0.259277 -1.002548
										CHANNELS 3 Zrotation Yrotation Xrotation
										JOINT LeftHandMiddle3
										{
											OFFSET 4.356523 -0.000006 0.000000
											CHANNELS 3 Zrotation Yrotation Xrotation
											JOINT LeftHandMiddle4
											{
												OFFSET 2.996875 -0.000006 0.000001
												CHANNELS 3 Zrotation Yrotation Xrotation
												JOINT LeftHandMiddleEnd
												{
													OFFSET 2.304294 -0.294571 -0.031740
													CHANNELS 3 Zrotation Yrotation Xrotation
													End Site
													{
														OFFSET 0.000000 0.000000 0.000000
													}
												}
											}
										}
									}
								}
								JOINT LeftHandRing1
								{
									OFFSET 2.882643 -0.053650 -0.322543
									CHANNELS 3 Zrotation Yrotation Xrotation
									JOINT LeftHandRing2
									{
										OFFSET 5.854544 -0.486203 -1.373841
										CHANNELS 3 Zrotation Yrotation Xrotation
										JOINT LeftHandRing3
										{
											OFFSET 4.350581 0.000000 0.000004
											CHANNELS 3 Zrotation Yrotation Xrotation
											JOINT LeftHandRing4
											{
												OFFSET 2.651324 0.000007 0.000004
												CHANNELS 3 Zrotation Yrotation Xrotation
												JOINT LeftHandRingEnd
												{
													OFFSET 1.936111 0.077685 -0.000070
													CHANNELS 3 Zrotation Yrotation Xrotation
													End Site
													{
														OFFSET 0.000000 0.000000 0.000000
													}
												}
											}
										}
									}
								}
								JOINT LeftHandPinky1
								{
									OFFSET 2.865500 -0.310004 -1.600378
									CHANNELS 3 Zrotation Yrotation Xrotation
									JOINT LeftHandPinky2
									{
										OFFSET 5.087852 -1.331142 -1.771231
										CHANNELS 3 Zrotation Yrotation Xrotation
										JOINT LeftHandPinky3
										{
											OFFSET 3.070974 0.000003 0.000000
											CHANNELS 3 Zrotation Yrotation Xrotation
											JOINT LeftHandPinky4
											{
												OFFSET 1.549667 -0.000000 0.000001
												CHANNELS 3 Zrotation Yrotation Xrotation
												JOINT LeftHandPinkyEnd
												{
													OFFSET 1.944894 -0.157802 0.057219
													CHANNELS 3 Zrotation Yrotation Xrotation
													End Site
													{
														OFFSET 0.000000 0.000000 0.000000
													}
												}
											}
										}
									}
								}
							}
						}
					}
				}
				JOINT RightShoulder
				{
					OFFSET -1.380118 23.180307 5.214158
					CHANNELS 3 Zrotation Yrotation Xrotation
					JOINT RightArm
					{
						OFFSET -15.037197 0.000011 -5.545603
						CHANNELS 3 Zrotation Yrotation Xrotation
						JOINT RightForeArm
						{
							OFFSET -28.736639 0.000002 -0.002597
							CHANNELS 3 Zrotation Yrotation Xrotation
							JOINT RightHand
							{
								OFFSET -27.133617 0.000000 0.002613
								CHANNELS 3 Zrotation Yrotation Xrotation
								JOINT RightHandThumb1
								{
									OFFSET -2.274037 -1.383990 3.163127
									CHANNELS 3 Zrotation Yrotation Xrotation
									JOINT RightHandThumb2
									{
										OFFSET -4.011430 -1.827468 1.640915
										CHANNELS 3 Zrotation Yrotation Xrotation
										JOINT RightHandThumb3
										{
											OFFSET -2.794935 -0.000004 -0.000003
											CHANNELS 3 Zrotation Yrotation Xrotation
											JOINT RightHandThumbEnd
											{
												OFFSET -3.183855 0.000004 -0.000000
												CHANNELS 3 Zrotation Yrotation Xrotation
												End Site
												{
													OFFSET 0.000000 0.000000 0.000000
												}
											}
										}
									}
								}
								JOINT RightHandIndex1
								{
									OFFSET -3.253269 -0.520059 2.282866
									CHANNELS 3 Zrotation Yrotation Xrotation
									JOINT RightHandIndex2
									{
										OFFSET -6.341919 0.012473 0.178265
										CHANNELS 3 Zrotation Yrotation Xrotation
										JOINT RightHandIndex3
										{
											OFFSET -3.654874 -0.000009 -0.000001
											CHANNELS 3 Zrotation Yrotation Xrotation
											JOINT RightHandIndex4
											{
												OFFSET -2.327586 -0.000000 0.000000
												CHANNELS 3 Zrotation Yrotation Xrotation
												JOINT RightHandIndexEnd
												{
													OFFSET -2.761789 -0.180657 -0.113078
													CHANNELS 3 Zrotation Yrotation Xrotation
													End Site
													{
														OFFSET 0.000000 0.000000 0.000000
													}
												}
											}
										}
									}
								}
								JOINT RightHandMiddle1
								{
									OFFSET -3.168107 0.246593 1.001031
									CHANNELS 3 Zrotation Yrotation Xrotation
									JOINT RightHandMiddle2
									{
										OFFSET -6.180829 -0.258836 -1.000896
										CHANNELS 3 Zrotation Yrotation Xrotation
										JOINT RightHandMiddle3
										{
											OFFSET -4.348905 -0.000000 -0.000000
											CHANNELS 3 Zrotation Yrotation Xrotation
											JOINT RightHandMiddle4
											{
												OFFSET -3.000243 -0.000003 -0.000002
												CHANNELS 3 Zrotation Yrotation Xrotation
												JOINT RightHandMiddleEnd
												{
													OFFSET -2.302517 -0.294372 -0.031706
													CHANNELS 3 Zrotation Yrotation Xrotation
													End Site
													{
														OFFSET 0.000000 0.000000 0.000000
													}
												}
											}
										}
									}
								}
								JOINT RightHandRing1
								{
									OFFSET -2.885693 -0.067952 -0.308858
									CHANNELS 3 Zrotation Yrotation Xrotation
									JOINT RightHandRing2
									{
										OFFSET -5.854196 -0.486132 -1.373732
										CHANNELS 3 Zrotation Yrotation Xrotation
										JOINT RightHandRing3
										{
											OFFSET -4.338814 -0.000003 -0.000000
											CHANNELS 3 Zrotation Yrotation Xrotation
											JOINT RightHandRing4
											{
												OFFSET -2.654906 -0.000004 0.000004
												CHANNELS 3 Zrotation Yrotation Xrotation
												JOINT RightHandRingEnd
												{
													OFFSET -1.933571 0.077524 -0.000052
													CHANNELS 3 Zrotation Yrotation Xrotation
													End Site
													{
														OFFSET 0.000000 0.000000 0.000000
													}
												}
											}
										}
									}
								}
								JOINT RightHandPinky1
								{
									OFFSET -2.866429 -0.342798 -1.584145
									CHANNELS 3 Zrotation Yrotation Xrotation
									JOINT RightHandPinky2
									{
										OFFSET -5.091370 -1.332054 -1.772385
										CHANNELS 3 Zrotation Yrotation Xrotation
										JOINT RightHandPinky3
										{
											OFFSET -3.062667 -0.000006 0.000000
											CHANNELS 3 Zrotation Yrotation Xrotation
											JOINT RightHandPinky4
											{
												OFFSET -1.546527 0.000005 -0.000002
												CHANNELS 3 Zrotation Yrotation Xrotation
												JOINT RightHandPinkyEnd
												{
													OFFSET -1.945122 -0.157721 0.057211
													CHANNELS 3 Zrotation Yrotation Xrotation
													End Site
													{
														OFFSET 0.000000 0.000000 0.000000
													}
												}
											}
										}
									}
								}
							}
						}
					}
				}
			}
		}
	}
	JOINT LeftLeg
	{
		OFFSET 10.043214 -8.434525 2.595655
		CHANNELS 3 Zrotation Yrotation Xrotation
		JOINT LeftShin
		{
			OFFSET -0.000002 -43.221752 -0.802913
			CHANNELS 3 Zrotation Yrotation Xrotation
			JOINT LeftFoot
			{
				OFFSET 0.000001 -42.155094 -3.481523
				CHANNELS 3 Zrotation Yrotation Xrotation
				JOINT LeftToeBase
				{
					OFFSET 0.000000 -5.059475 13.231529
					CHANNELS 3 Zrotation Yrotation Xrotation
					JOINT LeftToeEnd
					{
						OFFSET -0.009607 -1.647615 6.513017
						CHANNELS 3 Zrotation Yrotation Xrotation
						End Site
						{
							OFFSET 0.000000 0.000000 0.000000
						}
					}
				}
			}
		}
	}
	JOINT RightLeg
	{
		OFFSET -10.047277 -8.295260 2.620317
		CHANNELS 3 Zrotation Yrotation Xrotation
		JOINT RightShin
		{
			OFFSET 0.000000 -43.362209 -0.805556
			CHANNELS 3 Zrotation Yrotation Xrotation
			JOINT RightFoot
			{
				OFFSET 0.000002 -42.117393 -3.478399
				CHANNELS 3 Zrotation Yrotation Xrotation
				JOINT RightToeBase
				{
					OFFSET -0.000001 -5.079609 13.284196
					CHANNELS 3 Zrotation Yrotation Xrotation
					JOINT RightToeEnd
					{
						OFFSET 0.009532 -1.634383 6.460591
						CHANNELS 3 Zrotation Yrotation Xrotation
						End Site
						{
							OFFSET 0.000000 0.000000 0.000000
						}
					}
				}
			}
		}
	}
}
MOTION
Frames: 4
Frame Time: 0.033333
0.709483 96.409843 6.556379 -1.311515 -11.261117 -0.820553 1.805833 0.502726 2.199169 -0.162515 0.468650 -4.651943 2.893142 -1.363611 16.094273 -9.687294 9.591416 17.297071 1.073652 7.244019 -3.388741 -7.752792 10.072088 7.567750 0.000077 -0.000023 0.000005 0.102331 -0.159620 -0.167895 0.896853 -3.931770 -10.803990 -0.691540 3.600221 -10.831033 21.504782 -15.043508 7.121247 -94.799301 -37.026035 -11.644558 177.744370 -31.830879 -179.483490 -7.634780 -16.400259 -4.588387 -5.882101 9.861278 0.702590 -10.936862 -0.360575 7.156198 0.000002 8.774814 -0.000001 -16.837828 17.606867 5.654927 -1.844033 2.498503 -2.507276 -10.163590 4.678939 4.621102 -20.975996 -0.000003 0.000002 -21.226255 2.451694 -3.593995 0.000001 -0.000006 -0.000000 -1.362681 2.240796 -0.746323 -21.334887 0.584909 3.008321 -13.821197 -0.000002 0.000002 -23.887133 -0.249078 -0.839481 -60.910641 2.106654 -1.618872 -0.294024 1.679686 0.833255 -14.218194 0.093214 1.300580 -34.212006 -0.287561 0.967171 -20.033178 0.964534 1.212842 0.000000 0.000000 -0.000000 -3.440385 0.788233 0.501654 -15.928169 -3.167306 2.999703 -6.338816 -0.000000 0.000001 -18.123411 3.648176 -4.905662 -0.000004 0.000001 -0.000001 -13.562276 27.799196 6.431868 95.308800 48.136238 17.423702 179.631348 41.307732 179.916580 -8.576241 11.264715 -22.047068 2.243540 -5.255032 -3.180153 14.282878 -0.826594 6.952497 -0.000003 -12.690591 0.000001 16.205233 -18.519958 3.487568 1.665665 -1.955920 -2.878298 4.727794 -4.170584 4.993917 11.020512 0.000003 0.000000 12.109034 -3.735709 -2.866780 -0.000000 0.000001 -0.000002 1.291985 -1.928547 -1.498088 14.800113 0.567467 3.865604 14.242553 -1.341736 -6.660648 19.631939 0.143927 -0.648244 50.869503 -1.162612 -5.814246 0.353029 -1.511149 -0.031939 20.222771 3.684306 2.316628 18.787247 0.000004 -0.000001 10.751609 -0.479868 1.397905 -0.000001 0.000000 0.000000 3.273804 0.305947 -0.580111 21.486790 11.830360 2.266131 8.162916 0.000002 -0.000002 18.399054 -3.798980 -4.940567 0.000003 -0.000001 -0.000002 16.514576 34.875244 -15.698917 -0.385043 -0.604023 23.873055 -12.789120 -5.614979 5.158859 1.661080 -1.927205 -1.248400 0.000000 -0.000001 0.000002 -9.162676 -7.886142 -9.428692 0.092201 0.430785 25.928577 10.391792 11.000082 -13.574737 -1.439615 0.867632 -1.933900 -0.000000 -0.000000 -0.000001 
0.567542 96.470757 6.444171 -1.399432 -10.950131 -0.778514 1.856288 0.473673 2.111506 -0.152789 0.426683 -4.672921 3.021075 -1.456794 16.074465 -9.630862 9.597966 17.335222 1.057894 7.239667 -3.382517 -7.889179 10.162505 7.844027 0.000077 -0.000023 0.000004 0.103607 -0.159414 -0.156222 0.892082 -3.929178 -10.779366 -0.683650 3.604548 -10.815297 21.473339 -15.143222 7.113397 -94.495911 -36.787098 -11.803592 177.759659 -31.754910 -179.453537 -7.608614 -16.351772 -4.397667 -5.882101 9.861279 0.702589 -10.936859 -0.360576 7.156197 0.000001 8.774815 -0.000003 -16.808838 17.620085 5.671087 -1.844031 2.498503 -2.507275 -10.163591 4.678940 4.621102 -20.975992 -0.000004 0.000002 -21.226250 2.451694 -3.593994 0.000000 -0.000005 -0.000000 -1.362680 2.240797 -0.746324 -21.334888 0.584907 3.008320 -13.821195 -0.000003 0.000001 -23.887131 -0.249079 -0.839479 -60.837727 2.113103 -1.574300 -0.294025 1.679686 0.833254 -14.218195 0.093213 1.300580 -34.212006 -0.287564 0.967171 -20.033180 0.964535 1.212842 -0.000000 0.000000 0.000000 -3.440386 0.788232 0.501654 -15.928171 -3.167308 2.999703 -6.338815 -0.000001 0.000001 -18.123411 3.648175 -4.905663 -0.000004 0.000002 -0.000001 -13.413715 27.636219 6.544100 95.657372 48.196468 17.826471 179.504639 41.312130 179.895279 -8.552485 11.335207 -21.541508 2.243540 -5.255032 -3.180155 14.282877 -0.826593 6.952497 -0.000004 -12.690587 -0.000001 16.144684 -18.517900 3.519265 1.665665 -1.955920 -2.878299 4.727793 -4.170582 4.993918 11.020512 0.000004 0.000000 12.109029 -3.735706 -2.866777 -0.000000 0.000001 -0.000002 1.291984 -1.928547 -1.498088 14.800113 0.567469 3.865602 14.242554 -1.341733 -6.660649 19.631939 0.143927 -0.648244 50.879757 -1.141492 -5.796201 0.353029 -1.511149 -0.031941 20.222771 3.684307 2.316628 18.787247 0.000006 0.000001 10.751610 -0.479867 1.397904 -0.000001 0.000002 -0.000000 3.273804 0.305947 -0.580110 21.486795 11.830362 2.266132 8.162916 0.000003 -0.000002 18.399052 -3.798977 -4.940566 0.000002 -0.000001 -0.000000 16.581423 34.905045 -15.745224 -0.373892 -0.609866 23.476154 -12.867479 -5.786262 5.716326 1.660631 -1.920402 -1.304008 -0.000000 -0.000001 0.000002 -8.924648 -7.831687 -9.318166 0.098212 0.438233 25.693855 10.312453 10.834070 -13.516344 -1.437319 0.878961 -1.934462 0.000000 0.000000 -0.000001 
0.366046 96.520561 6.333660 -1.482409 -10.662975 -0.745744 1.886948 0.467180 2.043666 -0.144691 0.361804 -4.699506 3.120520 -1.551514 16.071800 -9.573850 9.591130 17.381952 1.047897 7.239291 -3.380605 -8.027736 10.229297 8.037064 0.000077 -0.000023 0.000004 0.098938 -0.150777 -0.176734 0.884571 -3.916086 -10.790348 -0.689596 3.605186 -10.820134 21.456953 -15.249061 7.087302 -94.249992 -36.583832 -11.979407 177.802048 -31.721855 -179.435272 -7.540576 -16.299196 -4.287952 -5.882099 9.861277 0.702589 -10.936857 -0.360575 7.156198 0.000001 8.774812 0.000000 -16.786396 17.659239 5.697277 -1.844031 2.498502 -2.507278 -10.163589 4.678939 4.621105 -20.975994 -0.000005 0.000003 -21.226255 2.451692 -3.593993 0.000001 -0.000004 -0.000001 -1.362680 2.240796 -0.746323 -21.334892 0.584908 3.008321 -13.821194 -0.000003 0.000001 -23.887125 -0.249080 -0.839481 -60.810497 2.112805 -1.533266 -0.294024 1.679686 0.833256 -14.218192 0.093215 1.300580 -34.211998 -0.287564 0.967170 -20.033176 0.964534 1.212842 -0.000000 0.000000 0.000000 -3.440386 0.788232 0.501655 -15.928167 -3.167306 2.999704 -6.338817 -0.000001 0.000002 -18.123411 3.648175 -4.905662 -0.000004 0.000001 -0.000001 -13.267230 27.484707 6.677800 95.937614 48.258419 18.172285 179.391953 41.356834 179.823730 -8.607709 11.410663 -21.235186 2.243539 -5.255032 -3.180155 14.282875 -0.826593 6.952496 -0.000003 -12.690592 0.000001 16.125351 -18.526079 3.505784 1.665665 -1.955920 -2.878299 4.727793 -4.170583 4.993919 11.020511 0.000003 -0.000001 12.109032 -3.735709 -2.866778 -0.000002 0.000001 0.000001 1.291984 -1.928547 -1.498086 14.800109 0.567468 3.865604 14.242551 -1.341734 -6.660646 19.631939 0.143924 -0.648242 50.929344 -1.115560 -5.810769 0.353029 -1.511149 -0.031941 20.222767 3.684306 2.316629 18.787245 0.000003 0.000001 10.751609 -0.479869 1.397905 -0.000001 0.000002 -0.000001 3.273804 0.305947 -0.580109 21.486792 11.830363 2.266130 8.162915 0.000001 -0.000001 18.399050 -3.798979 -4.940565 0.000002 0.000000 -0.000002 16.666550 34.931877 -15.714019 -0.381972 -0.615710 23.023657 -12.956837 -5.944509 6.166248 1.661313 -1.913927 -1.326287 0.000000 -0.000000 0.000002 -8.661057 -7.805952 -9.246675 0.100314 0.432349 25.561234 10.182251 10.711460 -13.511074 -1.437190 0.895733 -1.936749 0.000000 0.000000 -0.000001 
0.208228 96.559441 6.286305 -1.563802 -10.406135 -0.718764 1.911943 0.463427 1.980851 -0.141635 0.290956 -4.720667 3.206237 -1.638883 16.086979 -9.531776 9.588987 17.430622 1.037296 7.231957 -3.369599 -8.152809 10.296973 8.172404 0.000077 -0.000023 0.000005 0.107976 -0.155696 -0.165970 0.893279 -3.918322 -10.772629 -0.679560 3.597641 -10.815313 21.511194 -15.359057 7.063961 -94.142593 -36.492771 -12.114181 177.840759 -31.685612 -179.418655 -7.438337 -16.227636 -4.227350 -5.882102 9.861277 0.702592 -10.936858 -0.360574 7.156197 0.000001 8.774812 -0.000000 -16.778099 17.661142 5.713347 -1.844030 2.498502 -2.507276 -10.163589 4.678940 4.621104 -20.975992 -0.000005 0.000002 -21.226254 2.451690 -3.593992 0.000000 -0.000006 0.000000 -1.362679 2.240796 -0.746321 -21.334894 0.584908 3.008320 -13.821195 -0.000003 0.000001 -23.887129 -0.249079 -0.839481 -60.828186 2.118540 -1.498652 -0.294025 1.679686 0.833256 -14.218190 0.093214 1.300579 -34.212002 -0.287565 0.967170 -20.033176 0.964533 1.212842 -0.000000 0.000001 -0.000000 -3.440385 0.788232 0.501655 -15.928165 -3.167306 2.999703 -6.338817 -0.000002 0.000001 -18.123413 3.648174 -4.905662 -0.000004 0.000001 -0.000002 -13.106076 27.357681 6.836329 96.194771 48.391575 18.538185 179.306473 41.424538 179.789093 -8.656413 11.451341 -21.142395 2.243540 -5.255033 -3.180153 14.282878 -0.826593 6.952497 -0.000003 -12.690587 -0.000001 16.169796 -18.533497 3.497467 1.665665 -1.955920 -2.878297 4.727794 -4.170582 4.993917 11.020513 0.000003 0.000000 12.109033 -3.735709 -2.866780 -0.000001 0.000002 -0.000002 1.291984 -1.928548 -1.498087 14.800111 0.567468 3.865602 14.242553 -1.341734 -6.660648 19.631941 0.143926 -0.648244 51.012020 -1.095620 -5.783256 0.353029 -1.511149 -0.031940 20.222773 3.684307 2.316629 18.787247 0.000004 0.000001 10.751610 -0.479868 1.397904 0.000001 0.000001 0.000000 3.273804 0.305947 -0.580109 21.486794 11.830363 2.266131 8.162917 0.000003 -0.000001 18.399052 -3.798979 -4.940567 0.000002 0.000000 -0.000001 16.745932 34.953854 -15.721957 -0.373096 -0.624826 22.698481 -13.034716 -6.080972 6.561266 1.662356 -1.907533 -1.336770 0.000000 0.000000 0.000002 -8.445409 -7.805794 -9.133876 0.101711 0.432463 25.412899 10.098879 10.619323 -13.512361 -1.438686 0.909041 -1.932239 -0.000000 -0.000000 -0.000001 
